<mxfile host="app.diagrams.net" modified="2022-01-27T15:09:38.178Z" agent="5.0 (Windows NT 10.0; Win64; x64) AppleWebKit/537.36 (KHTML, like Gecko) Chrome/97.0.4692.99 Safari/537.36" etag="ok25Dc6LGKPptBD-cjfl" version="16.4.8" type="github">
  <diagram id="dqkI4iSsyCCfbzJvPXpM" name="Page-1">
    <mxGraphModel dx="1609" dy="513" grid="1" gridSize="10" guides="1" tooltips="1" connect="1" arrows="1" fold="1" page="1" pageScale="1" pageWidth="827" pageHeight="1169" math="0" shadow="0">
      <root>
        <mxCell id="0" />
        <mxCell id="1" parent="0" />
        <mxCell id="hGoQcYNd4HtDcWjUqz2k-3" value="" style="edgeStyle=orthogonalEdgeStyle;rounded=0;orthogonalLoop=1;jettySize=auto;html=1;startArrow=classic;startFill=1;" parent="1" source="hGoQcYNd4HtDcWjUqz2k-1" target="hGoQcYNd4HtDcWjUqz2k-2" edge="1">
          <mxGeometry relative="1" as="geometry" />
        </mxCell>
        <mxCell id="hGoQcYNd4HtDcWjUqz2k-5" value="" style="edgeStyle=orthogonalEdgeStyle;rounded=0;orthogonalLoop=1;jettySize=auto;html=1;startArrow=classicThin;startFill=1;" parent="1" source="hGoQcYNd4HtDcWjUqz2k-1" target="hGoQcYNd4HtDcWjUqz2k-4" edge="1">
          <mxGeometry relative="1" as="geometry" />
        </mxCell>
        <mxCell id="hGoQcYNd4HtDcWjUqz2k-9" value="" style="edgeStyle=orthogonalEdgeStyle;rounded=0;orthogonalLoop=1;jettySize=auto;html=1;startArrow=classic;startFill=1;" parent="1" source="hGoQcYNd4HtDcWjUqz2k-1" target="hGoQcYNd4HtDcWjUqz2k-8" edge="1">
          <mxGeometry relative="1" as="geometry" />
        </mxCell>
        <mxCell id="hGoQcYNd4HtDcWjUqz2k-12" value="" style="edgeStyle=orthogonalEdgeStyle;rounded=0;orthogonalLoop=1;jettySize=auto;html=1;startArrow=classic;startFill=1;" parent="1" source="hGoQcYNd4HtDcWjUqz2k-1" target="hGoQcYNd4HtDcWjUqz2k-11" edge="1">
          <mxGeometry relative="1" as="geometry">
            <Array as="points">
              <mxPoint x="310" y="280" />
              <mxPoint x="310" y="350" />
              <mxPoint x="185" y="350" />
            </Array>
          </mxGeometry>
        </mxCell>
        <mxCell id="hGoQcYNd4HtDcWjUqz2k-15" value="" style="edgeStyle=orthogonalEdgeStyle;rounded=0;orthogonalLoop=1;jettySize=auto;html=1;startArrow=classic;startFill=1;" parent="1" source="hGoQcYNd4HtDcWjUqz2k-1" target="hGoQcYNd4HtDcWjUqz2k-14" edge="1">
          <mxGeometry relative="1" as="geometry">
            <Array as="points">
              <mxPoint x="440" y="240" />
              <mxPoint x="440" y="130" />
            </Array>
          </mxGeometry>
        </mxCell>
        <mxCell id="hGoQcYNd4HtDcWjUqz2k-21" value="" style="edgeStyle=orthogonalEdgeStyle;rounded=0;orthogonalLoop=1;jettySize=auto;html=1;startArrow=classic;startFill=1;" parent="1" source="hGoQcYNd4HtDcWjUqz2k-1" target="hGoQcYNd4HtDcWjUqz2k-20" edge="1">
          <mxGeometry relative="1" as="geometry">
            <Array as="points">
              <mxPoint x="460" y="280" />
              <mxPoint x="460" y="340" />
              <mxPoint x="525" y="340" />
            </Array>
          </mxGeometry>
        </mxCell>
        <mxCell id="hGoQcYNd4HtDcWjUqz2k-23" value="" style="edgeStyle=orthogonalEdgeStyle;rounded=0;orthogonalLoop=1;jettySize=auto;html=1;exitX=0.305;exitY=0.956;exitDx=0;exitDy=0;exitPerimeter=0;startArrow=classic;startFill=1;" parent="1" source="hGoQcYNd4HtDcWjUqz2k-1" target="hGoQcYNd4HtDcWjUqz2k-22" edge="1">
          <mxGeometry relative="1" as="geometry">
            <Array as="points">
              <mxPoint x="340" y="287" />
              <mxPoint x="340" y="380" />
              <mxPoint x="275" y="380" />
            </Array>
          </mxGeometry>
        </mxCell>
        <mxCell id="hGoQcYNd4HtDcWjUqz2k-1" value="DigitalSync" style="ellipse;whiteSpace=wrap;html=1;fillColor=#fff2cc;strokeColor=#d6b656;" parent="1" vertex="1">
          <mxGeometry x="340" y="230" width="70" height="60" as="geometry" />
        </mxCell>
        <mxCell id="hGoQcYNd4HtDcWjUqz2k-2" value="VENTAS" style="ellipse;whiteSpace=wrap;html=1;fillColor=#dae8fc;strokeColor=#6c8ebf;" parent="1" vertex="1">
          <mxGeometry x="490" y="230" width="70" height="60" as="geometry" />
        </mxCell>
        <mxCell id="hGoQcYNd4HtDcWjUqz2k-4" value="RRHH" style="ellipse;whiteSpace=wrap;html=1;fillColor=#dae8fc;strokeColor=#6c8ebf;" parent="1" vertex="1">
          <mxGeometry x="340" y="90" width="70" height="60" as="geometry" />
        </mxCell>
        <mxCell id="hGoQcYNd4HtDcWjUqz2k-6" value="CLIENTES" style="ellipse;whiteSpace=wrap;html=1;fillColor=#dae8fc;strokeColor=#6c8ebf;" parent="1" vertex="1">
          <mxGeometry x="190" y="230" width="70" height="60" as="geometry" />
        </mxCell>
        <mxCell id="hGoQcYNd4HtDcWjUqz2k-8" value="PRODUCTOS" style="ellipse;whiteSpace=wrap;html=1;fillColor=#dae8fc;strokeColor=#6c8ebf;" parent="1" vertex="1">
          <mxGeometry x="335" y="370" width="80" height="70" as="geometry" />
        </mxCell>
        <mxCell id="hGoQcYNd4HtDcWjUqz2k-11" value="PAISES" style="ellipse;whiteSpace=wrap;html=1;fillColor=#dae8fc;strokeColor=#6c8ebf;" parent="1" vertex="1">
          <mxGeometry x="150" y="360" width="70" height="60" as="geometry" />
        </mxCell>
        <mxCell id="hGoQcYNd4HtDcWjUqz2k-14" value="EMPRESAS" style="ellipse;whiteSpace=wrap;html=1;fillColor=#dae8fc;strokeColor=#6c8ebf;" parent="1" vertex="1">
          <mxGeometry x="560" y="80" width="70" height="60" as="geometry" />
        </mxCell>
        <mxCell id="hGoQcYNd4HtDcWjUqz2k-29" value="" style="edgeStyle=orthogonalEdgeStyle;rounded=0;orthogonalLoop=1;jettySize=auto;html=1;exitX=1;exitY=0.5;exitDx=0;exitDy=0;entryX=0;entryY=0.5;entryDx=0;entryDy=0;" parent="1" source="hGoQcYNd4HtDcWjUqz2k-28" target="hGoQcYNd4HtDcWjUqz2k-17" edge="1">
          <mxGeometry relative="1" as="geometry">
            <mxPoint x="170" y="70" as="targetPoint" />
          </mxGeometry>
        </mxCell>
        <mxCell id="hGoQcYNd4HtDcWjUqz2k-17" value="RAMOS" style="ellipse;whiteSpace=wrap;html=1;fillColor=#dae8fc;strokeColor=#6c8ebf;" parent="1" vertex="1">
          <mxGeometry x="180" y="80" width="70" height="60" as="geometry" />
        </mxCell>
        <mxCell id="hGoQcYNd4HtDcWjUqz2k-20" value="PLATAFORMAS" style="ellipse;whiteSpace=wrap;html=1;fillColor=#dae8fc;strokeColor=#6c8ebf;" parent="1" vertex="1">
          <mxGeometry x="490" y="370" width="90" height="80" as="geometry" />
        </mxCell>
        <mxCell id="hGoQcYNd4HtDcWjUqz2k-22" value="TRANSACCION" style="ellipse;whiteSpace=wrap;html=1;fillColor=#dae8fc;strokeColor=#6c8ebf;" parent="1" vertex="1">
          <mxGeometry x="220" y="420" width="90" height="70" as="geometry" />
        </mxCell>
        <mxCell id="hGoQcYNd4HtDcWjUqz2k-28" value="allRamos" style="ellipse;whiteSpace=wrap;html=1;fillColor=#cdeb8b;strokeColor=#36393d;" parent="1" vertex="1">
          <mxGeometry x="60" y="90" width="65" height="40" as="geometry" />
        </mxCell>
        <mxCell id="hGoQcYNd4HtDcWjUqz2k-30" value="" style="endArrow=classic;startArrow=classic;html=1;rounded=0;entryX=1;entryY=1;entryDx=0;entryDy=0;" parent="1" source="hGoQcYNd4HtDcWjUqz2k-1" target="hGoQcYNd4HtDcWjUqz2k-17" edge="1">
          <mxGeometry width="50" height="50" relative="1" as="geometry">
            <mxPoint x="270" y="200" as="sourcePoint" />
            <mxPoint x="320" y="150" as="targetPoint" />
          </mxGeometry>
        </mxCell>
        <mxCell id="hGoQcYNd4HtDcWjUqz2k-31" value="" style="endArrow=classic;startArrow=classic;html=1;rounded=0;entryX=1;entryY=0.5;entryDx=0;entryDy=0;" parent="1" target="hGoQcYNd4HtDcWjUqz2k-6" edge="1">
          <mxGeometry width="50" height="50" relative="1" as="geometry">
            <mxPoint x="340" y="260" as="sourcePoint" />
            <mxPoint x="228.21873734152913" y="150.00320343559636" as="targetPoint" />
          </mxGeometry>
        </mxCell>
        <mxCell id="hGoQcYNd4HtDcWjUqz2k-32" value="" style="edgeStyle=orthogonalEdgeStyle;rounded=0;orthogonalLoop=1;jettySize=auto;html=1;exitX=1;exitY=0.5;exitDx=0;exitDy=0;entryX=0;entryY=0.5;entryDx=0;entryDy=0;" parent="1" source="hGoQcYNd4HtDcWjUqz2k-33" edge="1">
          <mxGeometry relative="1" as="geometry">
            <mxPoint x="190" y="260" as="targetPoint" />
            <Array as="points">
              <mxPoint x="-150" y="220" />
              <mxPoint x="-150" y="260" />
            </Array>
          </mxGeometry>
        </mxCell>
        <mxCell id="hGoQcYNd4HtDcWjUqz2k-37" value="" style="edgeStyle=orthogonalEdgeStyle;rounded=0;orthogonalLoop=1;jettySize=auto;html=1;startArrow=none;startFill=0;entryX=0.5;entryY=0;entryDx=0;entryDy=0;exitX=0.5;exitY=1;exitDx=0;exitDy=0;" parent="1" source="hGoQcYNd4HtDcWjUqz2k-36" target="hGoQcYNd4HtDcWjUqz2k-33" edge="1">
          <mxGeometry relative="1" as="geometry">
            <mxPoint x="160" y="200" as="sourcePoint" />
          </mxGeometry>
        </mxCell>
        <mxCell id="xVQy0BHJnEKwK96mD5Wz-11" style="edgeStyle=orthogonalEdgeStyle;rounded=0;orthogonalLoop=1;jettySize=auto;html=1;entryX=1;entryY=0.7;entryDx=0;entryDy=0;startArrow=none;startFill=0;" edge="1" parent="1" source="hGoQcYNd4HtDcWjUqz2k-33" target="xVQy0BHJnEKwK96mD5Wz-10">
          <mxGeometry relative="1" as="geometry" />
        </mxCell>
        <mxCell id="hGoQcYNd4HtDcWjUqz2k-33" value="byRutSap" style="ellipse;whiteSpace=wrap;html=1;fillColor=#cdeb8b;strokeColor=#36393d;" parent="1" vertex="1">
          <mxGeometry x="-261" y="200" width="65" height="40" as="geometry" />
        </mxCell>
        <mxCell id="hGoQcYNd4HtDcWjUqz2k-34" value="" style="edgeStyle=orthogonalEdgeStyle;rounded=0;orthogonalLoop=1;jettySize=auto;html=1;exitX=0.619;exitY=1.083;exitDx=0;exitDy=0;entryX=0.5;entryY=0;entryDx=0;entryDy=0;exitPerimeter=0;" parent="1" source="hGoQcYNd4HtDcWjUqz2k-35" target="hGoQcYNd4HtDcWjUqz2k-4" edge="1">
          <mxGeometry relative="1" as="geometry">
            <mxPoint x="440" y="30" as="targetPoint" />
            <Array as="points">
              <mxPoint x="376" y="65" />
            </Array>
          </mxGeometry>
        </mxCell>
        <mxCell id="hGoQcYNd4HtDcWjUqz2k-35" value="crearTrabajador" style="ellipse;whiteSpace=wrap;html=1;fillColor=#cdeb8b;strokeColor=#36393d;" parent="1" vertex="1">
          <mxGeometry x="314" width="100" height="40" as="geometry" />
        </mxCell>
        <mxCell id="hGoQcYNd4HtDcWjUqz2k-36" value="rut(int)" style="whiteSpace=wrap;html=1;fillColor=#e51400;fontColor=#ffffff;strokeColor=#B20000;" parent="1" vertex="1">
          <mxGeometry x="-253.75" y="160" width="43.75" height="20" as="geometry" />
        </mxCell>
        <mxCell id="xVQy0BHJnEKwK96mD5Wz-3" value="" style="edgeStyle=orthogonalEdgeStyle;rounded=0;orthogonalLoop=1;jettySize=auto;html=1;exitX=1;exitY=0.5;exitDx=0;exitDy=0;entryX=0.005;entryY=0.656;entryDx=0;entryDy=0;entryPerimeter=0;" edge="1" parent="1" source="xVQy0BHJnEKwK96mD5Wz-4" target="hGoQcYNd4HtDcWjUqz2k-6">
          <mxGeometry relative="1" as="geometry">
            <mxPoint x="30" y="320" as="targetPoint" />
            <Array as="points">
              <mxPoint x="-150" y="320" />
              <mxPoint x="-150" y="269" />
            </Array>
          </mxGeometry>
        </mxCell>
        <mxCell id="xVQy0BHJnEKwK96mD5Wz-12" style="edgeStyle=orthogonalEdgeStyle;rounded=0;orthogonalLoop=1;jettySize=auto;html=1;entryX=0.5;entryY=1;entryDx=0;entryDy=0;startArrow=none;startFill=0;" edge="1" parent="1" source="xVQy0BHJnEKwK96mD5Wz-4" target="xVQy0BHJnEKwK96mD5Wz-10">
          <mxGeometry relative="1" as="geometry" />
        </mxCell>
        <mxCell id="xVQy0BHJnEKwK96mD5Wz-4" value="byRutSap" style="ellipse;whiteSpace=wrap;html=1;fillColor=#cdeb8b;strokeColor=#36393d;" vertex="1" parent="1">
          <mxGeometry x="-240" y="300" width="65" height="40" as="geometry" />
        </mxCell>
        <mxCell id="xVQy0BHJnEKwK96mD5Wz-20" style="edgeStyle=orthogonalEdgeStyle;rounded=0;orthogonalLoop=1;jettySize=auto;html=1;exitX=0.5;exitY=0;exitDx=0;exitDy=0;entryX=0;entryY=1;entryDx=0;entryDy=0;startArrow=none;startFill=0;" edge="1" parent="1" source="xVQy0BHJnEKwK96mD5Wz-7" target="xVQy0BHJnEKwK96mD5Wz-4">
          <mxGeometry relative="1" as="geometry" />
        </mxCell>
        <mxCell id="xVQy0BHJnEKwK96mD5Wz-7" value="rut(int)" style="whiteSpace=wrap;html=1;fillColor=#e51400;fontColor=#ffffff;strokeColor=#B20000;" vertex="1" parent="1">
          <mxGeometry x="-261" y="360" width="43.75" height="20" as="geometry" />
        </mxCell>
        <mxCell id="xVQy0BHJnEKwK96mD5Wz-10" value="odoo" style="shape=datastore;whiteSpace=wrap;html=1;" vertex="1" parent="1">
          <mxGeometry x="-370" y="50" width="34" height="40" as="geometry" />
        </mxCell>
        <mxCell id="xVQy0BHJnEKwK96mD5Wz-13" value="numero de parte: 108" style="text;html=1;strokeColor=none;fillColor=none;align=center;verticalAlign=middle;whiteSpace=wrap;rounded=0;" vertex="1" parent="1">
          <mxGeometry x="-256" y="420" width="60" height="30" as="geometry" />
        </mxCell>
        <mxCell id="xVQy0BHJnEKwK96mD5Wz-17" value="" style="edgeStyle=orthogonalEdgeStyle;rounded=0;orthogonalLoop=1;jettySize=auto;html=1;exitX=1;exitY=0.5;exitDx=0;exitDy=0;entryX=-0.014;entryY=0.322;entryDx=0;entryDy=0;entryPerimeter=0;" edge="1" parent="1" source="xVQy0BHJnEKwK96mD5Wz-18" target="hGoQcYNd4HtDcWjUqz2k-6">
          <mxGeometry relative="1" as="geometry">
            <mxPoint x="268.75" y="220" as="targetPoint" />
            <Array as="points">
              <mxPoint x="65" y="160" />
              <mxPoint x="65" y="249" />
            </Array>
          </mxGeometry>
        </mxCell>
        <mxCell id="xVQy0BHJnEKwK96mD5Wz-23" style="edgeStyle=orthogonalEdgeStyle;rounded=0;orthogonalLoop=1;jettySize=auto;html=1;exitX=0.5;exitY=0;exitDx=0;exitDy=0;entryX=0.25;entryY=1;entryDx=0;entryDy=0;startArrow=none;startFill=0;" edge="1" parent="1" source="xVQy0BHJnEKwK96mD5Wz-18" target="xVQy0BHJnEKwK96mD5Wz-22">
          <mxGeometry relative="1" as="geometry" />
        </mxCell>
        <mxCell id="xVQy0BHJnEKwK96mD5Wz-18" value="crearCliente" style="ellipse;whiteSpace=wrap;html=1;fillColor=#cdeb8b;strokeColor=#36393d;" vertex="1" parent="1">
          <mxGeometry x="-120" y="140" width="65" height="40" as="geometry" />
        </mxCell>
        <mxCell id="xVQy0BHJnEKwK96mD5Wz-21" style="edgeStyle=orthogonalEdgeStyle;rounded=0;orthogonalLoop=1;jettySize=auto;html=1;exitX=0.5;exitY=0;exitDx=0;exitDy=0;entryX=0.703;entryY=1.017;entryDx=0;entryDy=0;entryPerimeter=0;startArrow=none;startFill=0;" edge="1" parent="1" source="xVQy0BHJnEKwK96mD5Wz-5" target="xVQy0BHJnEKwK96mD5Wz-4">
          <mxGeometry relative="1" as="geometry" />
        </mxCell>
        <mxCell id="xVQy0BHJnEKwK96mD5Wz-5" value="dv(int)" style="whiteSpace=wrap;html=1;fillColor=#e51400;fontColor=#ffffff;strokeColor=#B20000;" vertex="1" parent="1">
          <mxGeometry x="-210" y="360" width="43.75" height="20" as="geometry" />
        </mxCell>
        <mxCell id="xVQy0BHJnEKwK96mD5Wz-24" style="edgeStyle=orthogonalEdgeStyle;rounded=0;orthogonalLoop=1;jettySize=auto;html=1;entryX=1;entryY=0.3;entryDx=0;entryDy=0;startArrow=none;startFill=0;" edge="1" parent="1" source="xVQy0BHJnEKwK96mD5Wz-22" target="xVQy0BHJnEKwK96mD5Wz-10">
          <mxGeometry relative="1" as="geometry" />
        </mxCell>
        <mxCell id="xVQy0BHJnEKwK96mD5Wz-22" value="DatosCliente" style="whiteSpace=wrap;html=1;fillColor=#e51400;fontColor=#ffffff;strokeColor=#B20000;" vertex="1" parent="1">
          <mxGeometry x="-109.37" y="100" width="79.37" height="20" as="geometry" />
        </mxCell>
      </root>
    </mxGraphModel>
  </diagram>
</mxfile>
